<?xml version="1.0" encoding="utf-8"?>
<!-- Generator: Adobe Illustrator 21.0.1, SVG Export Plug-In . SVG Version: 6.00 Build 0)  -->
<svg version="1.1" id="Layer_1" xmlns="http://www.w3.org/2000/svg" xmlns:xlink="http://www.w3.org/1999/xlink" x="0px" y="0px"
	 viewBox="0 0 332.6 332.8" style="enable-background:new 0 0 332.6 332.8;" xml:space="preserve">
<style type="text/css">
	.st0{fill:#6FCBD3;}
</style>
<g>
	<g>
		<path class="st0" d="M167,281.8c72.9,0,137.6-43.8,164.8-111.5l1.2-3.1l-1.2-3.1C304.6,96.4,239.9,52.6,167,52.6
			S29.4,96.4,2.2,164.1L1,167.2l1.2,3.1C29.4,238,94.1,281.8,167,281.8z M167,69.2c65,0,122.7,38.3,148.1,98
			c-25.3,59.6-83.1,98-148.1,98c-65,0-122.7-38.3-148.1-98C44.2,107.6,102,69.2,167,69.2z"/>
		<path class="st0" d="M106,202.5l-15.9,9.3c7.8,13.5,19.1,24.7,32.6,32.5l9.2-16c10.4,6,22.3,9.5,35.1,9.5c0,0,0,0,0.1,0l0,18.3
			c15.6,0,31-4.1,44.4-11.9l-9.2-16c10.7-6.2,19.6-15.1,25.8-25.8l16,9.2c7.8-13.5,11.9-28.8,11.9-44.4v-0.3l-18.3,0.3
			c0-12.9-3.6-25-9.7-35.4l15.9-9.3c-7.8-13.4-19.1-24.6-32.6-32.4l-9.2,16c-10.3-5.9-22.3-9.4-35-9.4c-0.1,0-0.1,0-0.2,0l-0.1-18.4
			c-15.6,0-31,4.2-44.4,12l9.3,15.9c-10.7,6.2-19.6,15.1-25.7,25.9l-16-9.2c-7.7,13.4-11.8,28.7-11.8,43.9l0,0.5l18.3-0.1
			C96.4,180.1,100,192.1,106,202.5z M167,113.3c29.7,0,53.9,24.2,53.9,53.9s-24.2,53.9-53.9,53.9s-53.9-24.2-53.9-53.9
			S137.2,113.3,167,113.3z"/>
		<polygon class="st0" points="50.2,316.2 18,316.2 18,283.6 1.4,283.6 1.4,332.8 50.2,332.8 		"/>
		<polygon class="st0" points="332.6,49.9 332.6,1.6 290.1,1.6 290.1,18.2 316,18.2 316,49.9 		"/>
		<polygon class="st0" points="332.6,283.6 316,283.6 316,316.2 286.4,316.2 286.4,332.8 332.6,332.8 		"/>
		<polygon class="st0" points="18,18.2 46,18.2 46,1.6 1.4,1.6 1.4,45.8 18,45.8 		"/>
	</g>
</g>
</svg>
